<svg width="32" height="33" viewBox="0 0 32 33" fill="none" xmlns="http://www.w3.org/2000/svg">
<path d="M29.0851 14.0732L2.59902 14.0732C1.25801 14.0732 0.170898 15.1604 0.170898 16.5014C0.170898 17.8424 1.25801 18.9295 2.59902 18.9295H29.0851C30.4262 18.9295 31.5133 17.8424 31.5133 16.5014C31.5133 15.1604 30.4262 14.0732 29.0851 14.0732Z" fill="#E7DFD9"/>
<path d="M29.0812 3.11719L2.59512 3.11719C1.2541 3.11719 0.166992 4.2043 0.166992 5.54531C0.166992 6.88633 1.2541 7.97343 2.59512 7.97343L29.0812 7.97343C30.4223 7.97343 31.5094 6.88633 31.5094 5.54531C31.5094 4.2043 30.4223 3.11719 29.0812 3.11719Z" fill="#E7DFD9"/>
<path d="M29.0822 25.0273H2.59609C1.25508 25.0273 0.167969 26.1145 0.167969 27.4555C0.167969 28.7965 1.25508 29.8836 2.59609 29.8836H29.0822C30.4232 29.8836 31.5103 28.7965 31.5103 27.4555C31.5103 26.1145 30.4232 25.0273 29.0822 25.0273Z" fill="#E7DFD9"/>
</svg>
