<svg width="32" height="33" viewBox="0 0 32 33" fill="none" xmlns="http://www.w3.org/2000/svg">
<path d="M2.38164 16.2032L28.3212 21.5561C29.6345 21.8272 30.9189 20.9822 31.19 19.6689C31.461 18.3555 30.616 17.0711 29.3027 16.8001L3.3631 11.4472C2.04976 11.1761 0.765381 12.0211 0.494357 13.3345C0.223333 14.6478 1.0683 15.9322 2.38164 16.2032Z" fill="white"/>
<path d="M2.37871 5.24617L28.3183 10.5991C29.6316 10.8701 30.916 10.0252 31.187 8.71183C31.458 7.39848 30.6131 6.1141 29.2997 5.84308L3.36017 0.490136C2.04683 0.219112 0.762451 1.06408 0.491427 2.37742C0.220403 3.69076 1.06537 4.97515 2.37871 5.24617Z" fill="white"/>
<path d="M29.3 27.7538L3.36044 22.4009C2.0471 22.1299 0.762714 22.9748 0.491689 24.2882C0.220665 25.6015 1.06563 26.8859 2.37897 27.1569L28.3185 32.5099C29.6319 32.7809 30.9163 31.9359 31.1873 30.6226C31.4583 29.3092 30.6133 28.0249 29.3 27.7538Z" fill="white"/>
</svg>
