<svg width="201" height="148" viewBox="0 0 201 148" fill="none" xmlns="http://www.w3.org/2000/svg">
<path d="M72.1622 19.5319L109.103 11.911C112.086 11.2957 114.005 8.37967 113.389 5.39791C112.774 2.41614 109.857 0.497753 106.874 1.11308L69.9332 8.73393C66.9505 9.34925 65.0315 12.2653 65.6471 15.247C66.2626 18.2288 69.1795 20.1472 72.1622 19.5319Z" fill="url(#paint0_linear_268_792)"/>
<path d="M110.633 60.8114L131.067 56.5951C134.039 55.9818 135.968 53.051 135.355 50.0834C134.741 47.1122 131.809 45.184 128.841 45.7974L83.3477 55.1811L110.637 60.8114H110.633Z" fill="url(#paint1_linear_268_792)"/>
<path d="M69.927 44.4241L128.838 56.5773C131.82 57.1926 134.737 55.2742 135.353 52.2924C135.968 49.3107 134.049 46.3946 131.067 45.7793L72.1559 33.6262C69.1732 33.0109 66.2563 34.9292 65.6408 37.911C65.0253 40.8928 66.9442 43.8088 69.927 44.4241Z" fill="white"/>
<path d="M110.633 35.9364L131.067 31.7201C134.039 31.1068 135.968 28.176 135.355 25.2084C134.741 22.2372 131.809 20.309 128.841 20.9224L83.3477 30.3062L110.637 35.9364H110.633Z" fill="url(#paint2_linear_268_792)"/>
<path d="M69.927 19.5491L128.838 31.7023C131.82 32.3176 134.737 30.3992 135.353 27.4174C135.968 24.4357 134.049 21.5196 131.067 20.9043L72.1559 8.75118C69.1732 8.13586 66.2563 10.0542 65.6408 13.036C65.0253 16.0178 66.9442 18.9338 69.927 19.5491Z" fill="white"/>
<path d="M128.838 70.6615L91.8967 78.2823C88.914 78.8977 86.9951 81.8137 87.6106 84.7955C88.2261 87.7772 91.143 89.6956 94.1257 89.0803L131.067 81.4594C134.049 80.8441 135.968 77.9281 135.353 74.9463C134.737 71.9645 131.82 70.0462 128.838 70.6615Z" fill="url(#paint3_linear_268_792)"/>
<path d="M131.065 70.6462L72.1546 58.493C69.1719 57.8777 66.2549 59.7961 65.6394 62.7779C65.0239 65.7596 66.9429 68.6757 69.9256 69.291L128.836 81.4441C131.819 82.0595 134.736 80.1411 135.351 77.1593C135.967 74.1775 134.048 71.2615 131.065 70.6462Z" fill="white"/>
<path d="M0 111.851L3.14114 110.555C3.46444 111.998 4.3131 112.773 5.85979 112.773C7.1787 112.773 7.9796 112.251 7.9796 111.252C7.9796 110.154 7.13094 109.809 4.81274 109.034C2.17125 108.112 0.176345 106.768 0.176345 103.878C0.176345 100.763 2.42107 98.8203 5.78264 98.8203C8.89806 98.8203 11.0179 100.466 11.6388 103.231L8.49761 104.528C8.17432 103.059 7.32566 102.309 5.78264 102.309C4.46005 102.309 3.66283 102.831 3.66283 103.83C3.66283 104.928 4.51149 105.273 6.82969 106.048C9.47119 106.97 11.4661 108.314 11.4661 111.205C11.4661 114.319 9.22136 116.262 5.85979 116.262C2.74437 116.262 0.624555 114.617 0.00367385 111.851H0Z" fill="white"/>
<path d="M20.3398 108.185V98.8164H23.83V108.185C23.83 111.024 25.8249 112.769 28.4664 112.769C31.1079 112.769 33.0771 111.024 33.0771 108.185V98.8164H36.5672V108.185C36.5672 112.971 33.1028 116.258 28.4664 116.258C23.83 116.258 20.3398 112.967 20.3398 108.185Z" fill="white"/>
<path d="M46.3945 111.851L49.5357 110.555C49.859 111.998 50.7076 112.773 52.2506 112.773C53.5732 112.773 54.3705 112.251 54.3705 111.252C54.3705 110.154 53.5218 109.809 51.2036 109.034C48.5621 108.112 46.5672 106.768 46.5672 103.878C46.5672 100.763 48.8119 98.8203 52.1735 98.8203C55.2889 98.8203 57.4087 100.466 58.0296 103.231L54.8885 104.528C54.5652 103.059 53.7165 102.309 52.1735 102.309C50.8509 102.309 50.0537 102.831 50.0537 103.83C50.0537 104.928 50.9023 105.273 53.2205 106.048C55.862 106.97 57.8569 108.314 57.8569 111.205C57.8569 114.319 55.6122 116.262 52.2506 116.262C49.1352 116.262 47.0154 114.617 46.3945 111.851Z" fill="white"/>
<path d="M68.6719 98.8201H75.5016C79.0652 98.8201 81.6332 101.413 81.6332 104.924C81.6332 108.435 79.0652 111.002 75.5016 111.002H72.162V116.258H68.6719V98.8164V98.8201ZM75.5016 107.513C77.1732 107.513 78.1431 106.419 78.1431 104.924C78.1431 103.429 77.1695 102.309 75.5016 102.309H72.162V107.517H75.5016V107.513Z" fill="white"/>
<path d="M112.793 98.8203H115.835L125.255 110.283V98.8203H128.745V116.262H125.703L116.283 104.799V116.262H112.793V98.8203Z" fill="white"/>
<path d="M139.59 98.8201H145.92C150.854 98.8201 154.469 102.507 154.469 107.539C154.469 112.571 150.854 116.258 145.92 116.258H139.59V98.8164V98.8201ZM145.92 112.773C148.91 112.773 150.979 110.554 150.979 107.539C150.979 104.524 148.91 102.305 145.92 102.305H143.08V112.769H145.92V112.773Z" fill="white"/>
<path d="M164.301 97.7188L175.565 99.9224V103.411L164.349 101.208L164.301 97.7188ZM164.301 104.693L175.565 106.897V110.386L164.301 108.182V104.693ZM164.301 111.671L175.565 113.875V117.364L164.301 115.16V111.671Z" fill="white"/>
<path d="M90.9766 97.7188L102.241 99.9224V103.411L91.0243 101.208L90.9766 97.7188ZM90.9766 104.693L102.241 106.897V110.386L90.9766 108.182V104.693ZM90.9766 111.671L102.241 113.875V117.364L90.9766 115.16V111.671Z" fill="white"/>
<path d="M186.117 98.8201H192.447C197.381 98.8201 200.996 102.507 200.996 107.539C200.996 112.571 197.381 116.258 192.447 116.258H186.117V98.8164V98.8201ZM192.451 112.773C195.441 112.773 197.51 110.554 197.51 107.539C197.51 104.524 195.441 102.305 192.451 102.305H189.611V112.769H192.451V112.773Z" fill="white"/>
<path d="M31.2693 129.455H42.5333V132.944H34.7558V136.433H42.5333V139.922H34.7558V146.9H31.2656V129.459L31.2693 129.455Z" fill="white"/>
<path d="M52.5234 129.455H56.0136V146.897H52.5234V129.455Z" fill="white"/>
<path d="M71.1832 132.944H64.8789V129.455H80.9814V132.944H74.6771V146.897H71.1869V132.944H71.1832Z" fill="white"/>
<path d="M89.8828 129.455H92.9248L102.345 140.918V129.455H105.835V146.897H102.793L93.373 135.434V146.897H89.8828V129.455Z" fill="white"/>
<path d="M116.68 128.354L127.944 130.557V134.046L116.68 131.843V128.354ZM116.68 135.328L127.944 137.532V141.021L116.68 138.817V135.328ZM116.68 142.306L127.944 144.51V147.999L116.68 145.795V142.306Z" fill="white"/>
<path d="M137.469 142.486L140.61 141.189C140.933 142.633 141.782 143.408 143.329 143.408C144.647 143.408 145.448 142.886 145.448 141.887C145.448 140.789 144.6 140.444 142.281 139.669C139.64 138.747 137.645 137.403 137.645 134.512C137.645 131.398 139.89 129.455 143.251 129.455C146.367 129.455 148.487 131.1 149.108 133.866L145.966 135.162C145.643 133.693 144.794 132.944 143.251 132.944C141.929 132.944 141.132 133.466 141.132 134.465C141.132 135.563 141.98 135.908 144.298 136.683C146.94 137.605 148.935 138.949 148.935 141.839C148.935 144.954 146.69 146.897 143.329 146.897C140.213 146.897 138.093 145.251 137.472 142.486H137.469Z" fill="white"/>
<path d="M158.094 142.486L161.235 141.189C161.558 142.633 162.407 143.408 163.954 143.408C165.272 143.408 166.073 142.886 166.073 141.887C166.073 140.789 165.225 140.444 162.906 139.669C160.265 138.747 158.27 137.403 158.27 134.512C158.27 131.398 160.515 129.455 163.876 129.455C166.992 129.455 169.112 131.1 169.733 133.866L166.591 135.162C166.268 133.693 165.419 132.944 163.876 132.944C162.554 132.944 161.757 133.466 161.757 134.465C161.757 135.563 162.605 135.908 164.923 136.683C167.565 137.605 169.56 138.949 169.56 141.839C169.56 144.954 167.315 146.897 163.954 146.897C160.838 146.897 158.718 145.251 158.097 142.486H158.094Z" fill="white"/>
<defs>
<linearGradient id="paint0_linear_268_792" x1="65.5337" y1="10.3262" x2="113.503" y2="10.3262" gradientUnits="userSpaceOnUse">
<stop offset="0.08" stop-color="white"/>
<stop offset="0.26" stop-color="#FAD8FF"/>
<stop offset="0.43" stop-color="#F7BCFF"/>
<stop offset="0.58" stop-color="#F5ABFF"/>
<stop offset="0.69" stop-color="#F5A6FF"/>
</linearGradient>
<linearGradient id="paint1_linear_268_792" x1="123.146" y1="65.7879" x2="97.9481" y2="40.5816" gradientUnits="userSpaceOnUse">
<stop offset="0.08" stop-color="white"/>
<stop offset="0.26" stop-color="#FAD8FF"/>
<stop offset="0.43" stop-color="#F7BCFF"/>
<stop offset="0.58" stop-color="#F5ABFF"/>
<stop offset="0.69" stop-color="#F5A6FF"/>
</linearGradient>
<linearGradient id="paint2_linear_268_792" x1="123.146" y1="40.9129" x2="97.9481" y2="15.7066" gradientUnits="userSpaceOnUse">
<stop offset="0.08" stop-color="white"/>
<stop offset="0.26" stop-color="#FAD8FF"/>
<stop offset="0.43" stop-color="#F7BCFF"/>
<stop offset="0.58" stop-color="#F5ABFF"/>
<stop offset="0.69" stop-color="#F5A6FF"/>
</linearGradient>
<linearGradient id="paint3_linear_268_792" x1="122.72" y1="91.0684" x2="100.272" y2="68.6175" gradientUnits="userSpaceOnUse">
<stop offset="0.08" stop-color="white"/>
<stop offset="0.26" stop-color="#FAD8FF"/>
<stop offset="0.43" stop-color="#F7BCFF"/>
<stop offset="0.58" stop-color="#F5ABFF"/>
<stop offset="0.69" stop-color="#F5A6FF"/>
</linearGradient>
</defs>
</svg>
