<svg width="314" height="35" viewBox="0 0 314 35" fill="none" xmlns="http://www.w3.org/2000/svg">
<g clip-path="url(#clip0_245_359)">
<path d="M170.405 7.35802L184.885 4.33404C186.055 4.08969 186.808 2.93235 186.567 1.74906C186.326 0.565773 185.182 -0.195389 184.011 0.0489602L169.531 3.07294C168.361 3.31729 167.608 4.47462 167.849 5.65791C168.091 6.8412 169.235 7.60236 170.405 7.35802Z" fill="url(#paint0_linear_245_359)"/>
<path d="M185.488 23.7362L193.499 22.063C194.662 21.8211 195.42 20.658 195.178 19.4774C194.939 18.2998 193.79 17.5331 192.623 17.778L174.787 21.5033L185.485 23.7362H185.488Z" fill="url(#paint1_linear_245_359)"/>
<path d="M169.534 17.2297L192.625 22.0517C193.795 22.2961 194.939 21.5349 195.18 20.3516C195.421 19.1683 194.668 18.011 193.498 17.7666L170.408 12.9446C169.238 12.7003 168.094 13.4615 167.853 14.6447C167.611 15.828 168.364 16.9854 169.534 17.2297Z" fill="white"/>
<path d="M185.488 13.8641L193.499 12.1909C194.662 11.949 195.42 10.7859 195.178 9.60536C194.939 8.42771 193.79 7.66108 192.623 7.90593L174.787 11.6313L185.485 13.8641H185.488Z" fill="url(#paint2_linear_245_359)"/>
<path d="M169.533 7.3596L192.624 12.1816C193.794 12.4259 194.938 11.6648 195.179 10.4815C195.42 9.2982 194.667 8.14086 193.497 7.89651L170.407 3.07452C169.237 2.83017 168.093 3.59134 167.852 4.77463C167.61 5.95792 168.363 7.11525 169.533 7.3596Z" fill="white"/>
<path d="M192.624 27.6439L178.144 30.6679C176.974 30.9123 176.221 32.0696 176.462 33.2529C176.704 34.4362 177.848 35.1973 179.018 34.953L193.498 31.929C194.668 31.6847 195.421 30.5273 195.18 29.344C194.939 28.1608 193.794 27.3996 192.624 27.6439Z" fill="url(#paint3_linear_245_359)"/>
<path d="M193.496 27.6414L170.406 22.8194C169.236 22.575 168.092 23.3362 167.85 24.5195C167.609 25.7028 168.362 26.8601 169.532 27.1045L192.622 31.9265C193.792 32.1708 194.936 31.4096 195.178 30.2263C195.419 29.0431 194.666 27.8857 193.496 27.6414Z" fill="white"/>
<path d="M0 22.2095L2.4628 21.1805C2.71628 22.3261 3.38167 22.9411 4.59435 22.9411C5.62844 22.9411 6.25638 22.5272 6.25638 21.7343C6.25638 20.8628 5.59099 20.5888 3.77341 19.9737C1.70236 19.2421 0.138263 18.1752 0.138263 15.8811C0.138263 13.4092 1.89823 11.8672 4.53386 11.8672C6.9765 11.8672 8.63853 13.1731 9.12533 15.3681L6.66253 16.397C6.40904 15.2311 5.74366 14.6364 4.53386 14.6364C3.49689 14.6364 2.87183 15.0503 2.87183 15.8432C2.87183 16.7148 3.53722 16.9888 5.35479 17.6038C7.42585 18.3355 8.98994 19.4024 8.98994 21.6965C8.98994 24.1683 7.22998 25.7104 4.59435 25.7104C2.15171 25.7104 0.48968 24.4045 0.00288047 22.2095H0Z" fill="white"/>
<path d="M15.9463 19.3033V11.8672H18.6827V19.3033C18.6827 21.5565 20.2468 22.9411 22.3179 22.9411C24.3889 22.9411 25.9329 21.5565 25.9329 19.3033V11.8672H28.6693V19.3033C28.6693 23.1015 25.953 25.7104 22.3179 25.7104C18.6827 25.7104 15.9463 23.0986 15.9463 19.3033Z" fill="white"/>
<path d="M36.375 22.2095L38.8378 21.1805C39.0913 22.3261 39.7567 22.9411 40.9665 22.9411C42.0034 22.9411 42.6285 22.5272 42.6285 21.7343C42.6285 20.8628 41.9631 20.5888 40.1455 19.9737C38.0745 19.2421 36.5104 18.1752 36.5104 15.8811C36.5104 13.4092 38.2703 11.8672 40.906 11.8672C43.3486 11.8672 45.0106 13.1731 45.4974 15.3681L43.0346 16.397C42.7812 15.2311 42.1158 14.6364 40.906 14.6364C39.869 14.6364 39.2439 15.0503 39.2439 15.8432C39.2439 16.7148 39.9093 16.9888 41.7269 17.6038C43.798 18.3355 45.3621 19.4024 45.3621 21.6965C45.3621 24.1683 43.6021 25.7104 40.9665 25.7104C38.5238 25.7104 36.8618 24.4045 36.375 22.2095Z" fill="white"/>
<path d="M53.8418 11.8672H59.1966C61.9906 11.8672 64.0041 13.9251 64.0041 16.7118C64.0041 19.4986 61.9906 21.5361 59.1966 21.5361H56.5782V25.7074H53.8418V11.8643V11.8672ZM59.1966 18.7669C60.5072 18.7669 61.2676 17.8982 61.2676 16.7118C61.2676 15.5255 60.5043 14.6364 59.1966 14.6364H56.5782V18.7698H59.1966V18.7669Z" fill="white"/>
<path d="M88.4365 11.8672H90.8216L98.2071 20.9648V11.8672H100.944V25.7104H98.5585L91.173 16.6128V25.7104H88.4365V11.8672Z" fill="white"/>
<path d="M109.443 11.8672H114.406C118.275 11.8672 121.109 14.7938 121.109 18.7873C121.109 22.7808 118.275 25.7074 114.406 25.7074H109.443V11.8643V11.8672ZM114.406 22.9411C116.751 22.9411 118.373 21.1805 118.373 18.7873C118.373 16.3941 116.751 14.6335 114.406 14.6335H112.18V22.9382H114.406V22.9411Z" fill="white"/>
<path d="M128.82 10.9922L137.652 12.7412V15.5104L128.858 13.7614M128.82 16.5277L137.652 18.2767V21.0459L128.82 19.2969M128.82 22.0661L137.652 23.8151V26.5843L128.82 24.8354" fill="white"/>
<path d="M71.3291 10.9922L80.1606 12.7412V15.5104L71.3665 13.7614M71.3291 16.5277L80.1606 18.2767V21.0459L71.3291 19.2969M71.3291 22.0661L80.1606 23.8151V26.5843L71.3291 24.8354" fill="white"/>
<path d="M145.925 11.8672H150.888C154.756 11.8672 157.591 14.7938 157.591 18.7873C157.591 22.7808 154.756 25.7074 150.888 25.7074H145.925V11.8643V11.8672ZM150.891 22.9411C153.235 22.9411 154.857 21.1805 154.857 18.7873C154.857 16.3941 153.235 14.6335 150.891 14.6335H148.664V22.9382H150.891V22.9411Z" fill="white"/>
<path d="M205.438 11.8672H214.27V14.6364H208.172V17.4056H214.27V20.1748H208.172V25.7133H205.436V11.8701L205.438 11.8672Z" fill="white"/>
<path d="M222.104 11.8672H224.841V25.7104H222.104V11.8672Z" fill="white"/>
<path d="M236.731 14.6364H231.788V11.8672H244.413V14.6364H239.47V25.7104H236.734V14.6364H236.731Z" fill="white"/>
<path d="M251.396 11.8672H253.781L261.166 20.9648V11.8672H263.903V25.7104H261.517L254.132 16.6128V25.7104H251.396V11.8672Z" fill="white"/>
<path d="M272.403 10.9922L281.235 12.7412V15.5104L272.403 13.7614M272.403 16.5277L281.235 18.2767V21.0459L272.403 19.2969M272.403 22.0661L281.235 23.8151V26.5843L272.403 24.8354" fill="white"/>
<path d="M288.704 22.2095L291.167 21.1805C291.42 22.3261 292.086 22.9411 293.298 22.9411C294.333 22.9411 294.96 22.5272 294.96 21.7343C294.96 20.8628 294.295 20.5888 292.478 19.9737C290.406 19.2421 288.842 18.1752 288.842 15.8811C288.842 13.4092 290.602 11.8672 293.238 11.8672C295.681 11.8672 297.343 13.1731 297.829 15.3681L295.367 16.397C295.113 15.2311 294.448 14.6364 293.238 14.6364C292.201 14.6364 291.576 15.0503 291.576 15.8432C291.576 16.7148 292.241 16.9888 294.059 17.6038C296.13 18.3355 297.694 19.4024 297.694 21.6965C297.694 24.1683 295.934 25.7104 293.298 25.7104C290.856 25.7104 289.194 24.4045 288.707 22.2095H288.704Z" fill="white"/>
<path d="M304.875 22.2095L307.338 21.1805C307.591 22.3261 308.257 22.9411 309.469 22.9411C310.503 22.9411 311.131 22.5272 311.131 21.7343C311.131 20.8628 310.466 20.5888 308.648 19.9737C306.577 19.2421 305.013 18.1752 305.013 15.8811C305.013 13.4092 306.773 11.8672 309.409 11.8672C311.851 11.8672 313.514 13.1731 314 15.3681L311.538 16.397C311.284 15.2311 310.619 14.6364 309.409 14.6364C308.372 14.6364 307.747 15.0503 307.747 15.8432C307.747 16.7148 308.412 16.9888 310.23 17.6038C312.301 18.3355 313.865 19.4024 313.865 21.6965C313.865 24.1683 312.105 25.7104 309.469 25.7104C307.027 25.7104 305.365 24.4045 304.878 22.2095H304.875Z" fill="white"/>
</g>
<defs>
<linearGradient id="paint0_linear_245_359" x1="167.808" y1="3.70585" x2="186.612" y2="3.70586" gradientUnits="userSpaceOnUse">
<stop offset="0.08" stop-color="white"/>
<stop offset="0.26" stop-color="#FAD8FF"/>
<stop offset="0.43" stop-color="#F7BCFF"/>
<stop offset="0.58" stop-color="#F5ABFF"/>
<stop offset="0.69" stop-color="#F5A6FF"/>
</linearGradient>
<linearGradient id="paint1_linear_245_359" x1="190.394" y1="25.7125" x2="180.396" y2="15.8303" gradientUnits="userSpaceOnUse">
<stop offset="0.08" stop-color="white"/>
<stop offset="0.26" stop-color="#FAD8FF"/>
<stop offset="0.43" stop-color="#F7BCFF"/>
<stop offset="0.58" stop-color="#F5ABFF"/>
<stop offset="0.69" stop-color="#F5A6FF"/>
</linearGradient>
<linearGradient id="paint2_linear_245_359" x1="190.394" y1="15.8405" x2="180.396" y2="5.96116" gradientUnits="userSpaceOnUse">
<stop offset="0.08" stop-color="white"/>
<stop offset="0.26" stop-color="#FAD8FF"/>
<stop offset="0.43" stop-color="#F7BCFF"/>
<stop offset="0.58" stop-color="#F5ABFF"/>
<stop offset="0.69" stop-color="#F5A6FF"/>
</linearGradient>
<linearGradient id="paint3_linear_245_359" x1="190.22" y1="35.7548" x2="181.316" y2="26.9527" gradientUnits="userSpaceOnUse">
<stop offset="0.08" stop-color="white"/>
<stop offset="0.26" stop-color="#FAD8FF"/>
<stop offset="0.43" stop-color="#F7BCFF"/>
<stop offset="0.58" stop-color="#F5ABFF"/>
<stop offset="0.69" stop-color="#F5A6FF"/>
</linearGradient>
<clipPath id="clip0_245_359">
<rect width="314" height="35" fill="white"/>
</clipPath>
</defs>
</svg>
